<?xml version="1.0" encoding="utf-8"?>
<!-- Generator: Adobe Illustrator 25.4.1, SVG Export Plug-In . SVG Version: 6.00 Build 0)  -->
<svg version="1.1" id="Capa_1" xmlns="http://www.w3.org/2000/svg" xmlns:xlink="http://www.w3.org/1999/xlink" x="0px" y="0px"
	 viewBox="30 30 350 140" style="enable-background:new 0 0 400 200;" xml:space="preserve">
<style type="text/css">
	.st0{fill:#E30613;fill-opacity:0.9;}
	.st1{fill:#5CB85C;}
</style>
<path class="st0" d="M109.46,113.61c0.11-0.62,0.17-1.25,0.17-1.91c0-0.65-0.07-1.28-0.17-1.91v-8.9c0-0.23-0.02-0.46-0.03-0.69
	c0.01-0.23,0.03-0.46,0.03-0.69V88.73v-0.12V77.84c0-0.01,0-0.02,0-0.03s0-0.02,0-0.03V67v-0.12V56.1c0-0.36-0.02-0.71-0.05-1.07
	c-0.02-0.17-0.05-0.35-0.07-0.52c-0.03-0.17-0.05-0.36-0.08-0.53c-0.04-0.2-0.09-0.4-0.14-0.6c-0.04-0.14-0.07-0.29-0.11-0.43
	c-0.06-0.2-0.13-0.4-0.2-0.59c-0.05-0.14-0.09-0.28-0.15-0.42c-0.08-0.19-0.17-0.38-0.26-0.56c-0.06-0.13-0.12-0.28-0.19-0.41
	c-0.1-0.18-0.21-0.37-0.33-0.55c-0.08-0.12-0.15-0.24-0.23-0.36c-0.14-0.21-0.3-0.42-0.46-0.62c-0.06-0.08-0.11-0.16-0.17-0.23
	c-0.46-0.56-0.98-1.08-1.54-1.54c-0.08-0.07-0.17-0.12-0.25-0.19c-0.19-0.15-0.4-0.31-0.6-0.44c-0.13-0.09-0.27-0.16-0.41-0.24
	c-0.17-0.1-0.34-0.2-0.51-0.31c-0.15-0.08-0.3-0.14-0.45-0.21c-0.17-0.08-0.34-0.16-0.51-0.23c-0.15-0.06-0.31-0.11-0.47-0.17
	c-0.18-0.06-0.36-0.13-0.54-0.18c-0.16-0.05-0.33-0.08-0.48-0.12c-0.18-0.05-0.37-0.1-0.55-0.13c-0.18-0.05-0.38-0.07-0.56-0.1
	c-0.16-0.02-0.33-0.05-0.49-0.07c-0.34-0.03-0.68-0.05-1.02-0.05c-0.02,0-0.03,0-0.05,0c-0.36,0-0.71,0.02-1.07,0.05
	c-0.17,0.02-0.34,0.05-0.5,0.07c-0.18,0.03-0.37,0.05-0.55,0.08c-0.19,0.04-0.39,0.09-0.57,0.14c-0.16,0.04-0.33,0.08-0.47,0.12
	c-0.19,0.06-0.38,0.13-0.56,0.19c-0.15,0.05-0.3,0.1-0.45,0.16c-0.18,0.07-0.35,0.16-0.52,0.24c-0.14,0.07-0.3,0.13-0.44,0.21
	c-0.17,0.09-0.34,0.19-0.5,0.3c-0.13,0.08-0.28,0.16-0.41,0.25c-0.19,0.12-0.37,0.27-0.55,0.41c-0.1,0.08-0.2,0.14-0.31,0.22
	c-0.29,0.23-0.55,0.48-0.82,0.73l-7.61,7.61l-0.08,0.08l-4.25,4.25l-3.36,3.36l-0.04,0.04l-4.21,4.21l-0.08,0.08l-3.32,3.32
	l-0.08,0.08l-4.21,4.21l-0.04,0.04l-7.62,7.62l-0.08,0.08l-7.67,7.66c-3.75,3.75-4.19,9.55-1.34,13.79
	c-1.52,1.88-2.44,4.26-2.44,6.86c0,6.03,4.88,10.9,10.9,10.9H66.1h0.12H77c0.01,0,0.02,0,0.03,0c0.01,0,0.02,0,0.03,0h10.6
	c0,0.01,0,0.02,0,0.03v10.78v0.12v10.78c0,6.03,4.88,10.9,10.9,10.9c6.03,0,10.9-4.88,10.9-10.9v-10.78v-0.12v-10.78
	c0-0.01,0-0.02,0-0.03s0-0.02,0-0.03V113.61z M77.03,100.8c-0.01,0-0.02,0-0.03,0h-7.74l1.96-1.96l0.08-0.08l4.25-4.25l3.36-3.36
	l0.04-0.04l4.21-4.21l3.4-3.4l0.08-0.08l0.98-0.98v6.2v0.12v10.78c0,0.23,0.02,0.46,0.03,0.69c-0.01,0.2-0.03,0.4-0.03,0.6h-10.6
	C77.05,100.8,77.04,100.8,77.03,100.8z"/>
<path class="st0" d="M356.46,113.61c0.11-0.62,0.17-1.25,0.17-1.91c0-0.65-0.07-1.28-0.17-1.91v-8.9c0-0.23-0.02-0.46-0.03-0.69
	c0.01-0.23,0.03-0.46,0.03-0.69V88.73v-0.12V77.84c0-0.01,0-0.02,0-0.03s0-0.02,0-0.03V67v-0.12V56.1c0-0.36-0.02-0.71-0.05-1.07
	c-0.02-0.17-0.05-0.35-0.07-0.52c-0.03-0.17-0.05-0.36-0.08-0.53c-0.04-0.2-0.09-0.4-0.14-0.6c-0.04-0.14-0.07-0.29-0.11-0.43
	c-0.06-0.2-0.13-0.4-0.2-0.59c-0.05-0.14-0.09-0.28-0.15-0.42c-0.08-0.19-0.17-0.38-0.27-0.56c-0.06-0.13-0.12-0.28-0.19-0.41
	c-0.1-0.18-0.21-0.37-0.33-0.55c-0.08-0.12-0.15-0.24-0.23-0.36c-0.14-0.21-0.3-0.42-0.46-0.62c-0.06-0.08-0.11-0.16-0.17-0.23
	c-0.46-0.56-0.98-1.08-1.54-1.54c-0.08-0.07-0.17-0.12-0.26-0.19c-0.19-0.15-0.4-0.31-0.6-0.44c-0.13-0.09-0.27-0.16-0.41-0.24
	c-0.17-0.1-0.34-0.2-0.51-0.31c-0.15-0.08-0.3-0.14-0.45-0.21c-0.17-0.08-0.34-0.16-0.51-0.23c-0.15-0.06-0.31-0.11-0.47-0.17
	c-0.18-0.06-0.36-0.13-0.54-0.18c-0.16-0.05-0.33-0.08-0.48-0.12c-0.18-0.05-0.37-0.1-0.55-0.13c-0.18-0.05-0.38-0.07-0.56-0.1
	c-0.16-0.02-0.33-0.05-0.49-0.07c-0.34-0.03-0.68-0.05-1.02-0.05c-0.02,0-0.03,0-0.05,0c-0.36,0-0.71,0.02-1.07,0.05
	c-0.17,0.02-0.34,0.05-0.5,0.07c-0.18,0.03-0.37,0.05-0.55,0.08c-0.19,0.04-0.39,0.09-0.57,0.14c-0.16,0.04-0.33,0.08-0.47,0.12
	c-0.19,0.06-0.38,0.13-0.56,0.19c-0.15,0.05-0.29,0.1-0.45,0.16c-0.18,0.07-0.35,0.16-0.52,0.24c-0.14,0.07-0.3,0.13-0.44,0.21
	c-0.17,0.09-0.34,0.19-0.5,0.3c-0.13,0.08-0.28,0.16-0.41,0.25c-0.19,0.12-0.37,0.27-0.55,0.41c-0.1,0.08-0.2,0.14-0.31,0.22
	c-0.29,0.23-0.55,0.48-0.82,0.73l-7.6,7.61l-0.08,0.08l-4.25,4.25l-3.36,3.36l-0.04,0.04l-4.21,4.21l-0.08,0.08l-3.32,3.32
	l-0.08,0.08l-4.21,4.21l-0.04,0.04l-7.62,7.62l-0.08,0.08l-7.67,7.66c-3.75,3.75-4.19,9.55-1.33,13.79
	c-1.52,1.88-2.44,4.26-2.44,6.86c0,6.03,4.88,10.9,10.9,10.9h10.78h0.12H324c0.01,0,0.02,0,0.03,0c0.01,0,0.02,0,0.03,0h10.6
	c0,0.01,0,0.02,0,0.03v10.78v0.12v10.78c0,6.03,4.88,10.9,10.9,10.9c6.02,0,10.9-4.88,10.9-10.9v-10.78v-0.12v-10.78
	c0-0.01,0-0.02,0-0.03s0-0.02,0-0.03V113.61z M324.03,100.8c-0.01,0-0.02,0-0.03,0h-7.74l1.96-1.96l0.08-0.08l4.25-4.25l3.36-3.36
	l0.04-0.04l4.21-4.21l3.4-3.4l0.08-0.08l0.98-0.98v6.2v0.12v10.78c0,0.23,0.02,0.46,0.03,0.69c-0.01,0.2-0.03,0.4-0.03,0.6h-10.6
	C324.05,100.8,324.04,100.8,324.03,100.8z"/>
<g>
	<path class="st1" d="M201.44,155.2c0,0-0.01,0-0.02,0l-0.3,0l0.02-2l0.28,0c0,0,0.01,0,0.02,0c3.18,0,6.36-0.28,9.47-0.85
		l0.36,1.97C208.04,154.91,204.74,155.2,201.44,155.2z M191.02,154.22c-3.33-0.64-6.61-1.59-9.77-2.83l0.73-1.86
		c3.04,1.2,6.2,2.12,9.41,2.73L191.02,154.22z M221.06,151.6l-0.71-1.87c3.04-1.16,6-2.62,8.79-4.33l1.05,1.71
		C227.29,148.88,224.22,150.39,221.06,151.6z M172.18,146.79c-2.86-1.8-5.58-3.88-8.07-6.19l1.36-1.47c2.4,2.22,5.02,4.22,7.78,5.96
		L172.18,146.79z M238.31,141l-1.34-1.48c2.42-2.19,4.65-4.62,6.63-7.22l1.59,1.21C243.14,136.21,240.83,138.73,238.31,141z
		 M157.31,133.05c-2.03-2.72-3.81-5.64-5.3-8.68l1.8-0.88c1.43,2.93,3.15,5.74,5.11,8.36L157.31,133.05z M250.59,124.89l-1.79-0.9
		c1.47-2.92,2.67-5.99,3.57-9.12l1.92,0.55C253.36,118.67,252.11,121.86,250.59,124.89z M148.4,114.86
		c-0.9-3.26-1.5-6.63-1.78-10.01l1.99-0.17c0.27,3.26,0.85,6.5,1.72,9.65L148.4,114.86z M256.18,105.43l-1.99-0.19
		c0.16-1.66,0.24-3.36,0.24-5.04c0-1.59-0.07-3.19-0.21-4.76l1.99-0.18c0.15,1.63,0.22,3.29,0.22,4.94
		C256.43,101.95,256.35,103.71,256.18,105.43z M148.69,94.88l-1.99-0.2c0.34-3.38,0.99-6.74,1.94-9.98l1.92,0.56
		C149.64,88.39,149.01,91.63,148.69,94.88z M252.45,85.81c-0.89-3.14-2.07-6.22-3.52-9.14l1.79-0.89c1.51,3.03,2.74,6.23,3.66,9.49
		L252.45,85.81z M154.18,76.16l-1.78-0.91c1.54-3.02,3.37-5.91,5.44-8.59l1.58,1.22C157.42,70.47,155.66,73.26,154.18,76.16z
		 M243.78,68.33c-1.96-2.61-4.18-5.05-6.59-7.25l1.35-1.48c2.5,2.29,4.8,4.82,6.84,7.52L243.78,68.33z M166.09,60.7l-1.33-1.49
		c2.53-2.26,5.27-4.3,8.17-6.06l1.04,1.71C171.17,56.56,168.52,58.52,166.09,60.7z M229.37,55.16c-2.78-1.73-5.73-3.2-8.77-4.38
		l0.72-1.86c3.15,1.23,6.21,2.75,9.1,4.55L229.37,55.16z M182.77,50.58l-0.7-1.87c3.17-1.19,6.47-2.09,9.81-2.68l0.34,1.97
		C189,48.56,185.82,49.43,182.77,50.58z M211.18,48.1c-3.2-0.59-6.48-0.9-9.76-0.9v-2c3.4,0,6.81,0.31,10.12,0.93L211.18,48.1z"/>
</g>
</svg>
