<svg id="Capa_1" data-name="Capa 1" xmlns="http://www.w3.org/2000/svg" viewBox="0 0 619 153"><defs><style>.cls-1{fill:#1c3a69;}.cls-2,.cls-3{fill:#e30d17;}.cls-2{stroke:#e30d17;stroke-miterlimit:10;stroke-width:2.83px;}</style></defs><path class="cls-1" d="M48.06,97.59c8.39,10.16,26.83,10.64,27.42,1.66.23-4.74-7.45-7.45-14.3-8.39-13.47-2.13-25.76-10.64-25.76-26.6,0-16.42,14.89-25,30.25-25,10.16,0,20,2.83,28.6,13.35L80.44,63.2c-8.74-9.33-23.75-9-24.1.71.23,4,4.6,6.38,11.1,7.8,14.89,2.72,29.78,7.92,28.83,28.48-.71,16.19-17.72,25-33.08,25-10,0-20.68-5.08-28.48-15.12Z"/><path class="cls-1" d="M175,124.06H152.28l-5.44-16.78H124.51l-5.2,16.78H96.63L125.81,40.4h19.26ZM141.76,88.49,136,64h-.59l-6.14,24.46Z"/><path class="cls-1" d="M180.51,40.4H200.6l20.21,35.68,7.08,16.78.6-.11c-.12,0-2.25-14.42-2.36-14.42V40.4h21v83.66H225.77l-18.91-33-7.33-16.78-.58.12,2.71,16.19v33.44H180.51Z"/><path class="cls-1" d="M269.72,97.59c8.39,10.16,26.82,10.64,27.41,1.66.24-4.74-7.44-7.45-14.3-8.39-13.47-2.13-25.76-10.64-25.76-26.6,0-16.42,14.89-25,30.25-25,10.17,0,20,2.83,28.6,13.35L302.09,63.2c-8.74-9.33-23.75-9-24.1.71.24,4,4.61,6.38,11.11,7.8,14.89,2.72,29.78,7.92,28.83,28.48-.71,16.19-17.73,25-33.09,25-10,0-20.68-5.08-28.47-15.12Z"/><path class="cls-1" d="M348.17,124.06H327V40.4h21.15Z"/><path class="cls-2" d="M391.33,124.68q-8.85,0-14.43-3.62a21.35,21.35,0,0,1-8.19-9.79,34.78,34.78,0,0,1-2.61-13.7,58.17,58.17,0,0,1,5.66-24.07,65.74,65.74,0,0,1,11.16-16.6,56.92,56.92,0,0,1,15.66-12.18,38.72,38.72,0,0,1,18.27-4.57q7.39,0,11.75,2a13.77,13.77,0,0,1,6.3,5.07,12.18,12.18,0,0,1,2,6.6,15.56,15.56,0,0,1-2.9,9,12.68,12.68,0,0,1-7.1,5.36.59.59,0,0,1-.44.15.83.83,0,0,1-.58.14,1.21,1.21,0,0,0,.58-.14h.15l.29-.15c1.35-.58,2.68-2.07,4-4.49a16.29,16.29,0,0,0,1.95-7.83,12.11,12.11,0,0,0-3.48-8.41q-3.48-3.76-12.9-3.77a32.67,32.67,0,0,0-16.32,4.49A53.51,53.51,0,0,0,385.89,60,68.51,68.51,0,0,0,375.67,76a53.81,53.81,0,0,0-4.93,21.75A26.59,26.59,0,0,0,375.67,114q4.93,6.67,15.66,6.67a28.29,28.29,0,0,0,13-3.48,80.09,80.09,0,0,0,13.63-9.06,165.74,165.74,0,0,0,13.49-12.25q6.58-6.67,12.39-12.91c-3.67.39-7.18.85-10.51,1.38s-6.55,1.19-9.64,2h-.58a1.54,1.54,0,0,1-1.74-1.74,2.59,2.59,0,0,1,.58-1.52,2.3,2.3,0,0,1,1.59-1q10.59-1.74,23.06-2.9,23.78-28.13,38-44.08T507.19,15.5a15.93,15.93,0,0,1,6.38-1.45c2.12,0,3.19.68,3.19,2s-1.31,3.33-3.92,5.94a80.68,80.68,0,0,0-10.66,14.36A173.41,173.41,0,0,0,492,56a158.26,158.26,0,0,0-7.76,21.53c1.35,0,2.46,0,3.33-.07a11.5,11.5,0,0,1,2.32.07,3.53,3.53,0,0,1,2.18.87,2.09,2.09,0,0,1,.72,1.45c0,1.16-.72,1.74-2.17,1.74-1,0-2.06,0-3.27-.07s-2.49-.08-3.84-.08a75.4,75.4,0,0,0-2.46,18.13c0,1.35.05,2.66.14,3.91s.24,2.47.44,3.63a33.2,33.2,0,0,0,1.81,6.09q1.09,2.61,3,2.61,2.18,0,5.51-4.21a3.13,3.13,0,0,1,2.18-1.3,1.35,1.35,0,0,1,1.16.65,1.78,1.78,0,0,1-.15,1.81c-2.12,4.35-5,6.53-8.55,6.53a8,8,0,0,1-5.58-2.61q-2.68-2.61-3.85-8.41a45.1,45.1,0,0,1-.87-9.14,74.18,74.18,0,0,1,.51-8.48c.34-3,.84-6,1.52-9.21q-5.94,0-13.41.08t-15,.79a2.2,2.2,0,0,1-.58.66c-.29.24-.53.46-.72.65q-5.81,6.52-12.91,13.7A186.59,186.59,0,0,1,421,110.76a83.41,83.41,0,0,1-15.22,10.08A32.13,32.13,0,0,1,391.33,124.68Zm61.92-46.25q7.1-.44,13.92-.65t12.18-.37a133,133,0,0,1,7.1-20.95,174.78,174.78,0,0,1,9.72-19.21A115.35,115.35,0,0,1,506,22.75c.29-.39.72-1,1.3-1.81s1.14-1.6,1.67-2.32.7-1,.51-.95Q501.68,21,488.27,36.74T453.25,78.43Z"/><path class="cls-3" d="M486.6,130.77c0-4.93,1.74-13.92,5.07-26.82,5.37-21.61,9.86-36.11,13.49-43.65a4,4,0,0,1,3.62-1.74,13.42,13.42,0,0,1,5.66,1.31c1.88.87,2.75,1.88,2.75,2.9l-.58,1.74c3-3.92,6.38-6,10-6,4.78,0,7.83,2.61,9.28,7.83a21.76,21.76,0,0,1,1,6.82,47.51,47.51,0,0,1-3,15.37,16.46,16.46,0,0,0,13.34-9.72,1.48,1.48,0,0,1,1.16-.72c1,0,1.45.58,1.45,1.88-3.63,7.11-9.28,11-17.26,11.6-4.64,10-10.87,15.08-18.56,15.08q-6.09,0-6.09-6.09c0-2.9,1.31-5.65,3.92-8.12a17,17,0,0,1,10.29-3,46,46,0,0,0,3.34-16.53c0-4.21-.87-6.24-2.47-6.24s-3.48,1.74-5.8,5.08a64.25,64.25,0,0,0-7.39,13.63c-8,26.1-12,42.48-12,49.15,0,1.16-.43,1.74-1.16,1.74l-2.9.15C488.92,136.43,486.6,134.54,486.6,130.77Zm29.29-31.32a26.69,26.69,0,0,0,3-4.06,8.35,8.35,0,0,0,1.74-3c-4.78.29-7.83,2-9.13,5.36a3.41,3.41,0,0,0-.29,1.6c0,1.3.43,2,1.59,2C513.71,101.34,514.73,100.61,515.89,99.45Z"/><path class="cls-3" d="M535.61,133.67a10.14,10.14,0,0,1-.29-2.46c0-13.49,13.92-62.21,18-70.91,1-1.45,2.17-1.74,4.2-1.74,3.63,0,8,2.47,8,4.35l-.44,1.6c2.9-3.63,6-6,9.86-6,7.11,0,10.3,6.38,10.3,14.65,0,14.64-9.57,33.93-23.78,34.22a10,10,0,0,1-8.56-4.06c-2.9,10.58-6.81,25.52-6.81,31.46v.58a1.55,1.55,0,0,1-1.45,1.45L542,137C539.09,137,536.33,136.43,535.61,133.67Zm38-62.35c0-2.75-.73-4.64-2.32-4.64-4.5.15-11.89,14.94-13.2,18.85a30.77,30.77,0,0,0-1.74,9c0,2.76.73,4.93,3.48,4.93h.29C566.64,99.16,573.6,80.31,573.6,71.32Z"/></svg>