<?xml version="1.0" encoding="utf-8"?>
<!-- Generator: Adobe Illustrator 25.4.1, SVG Export Plug-In . SVG Version: 6.00 Build 0)  -->
<svg version="1.1" id="Capa_1" xmlns="http://www.w3.org/2000/svg" xmlns:xlink="http://www.w3.org/1999/xlink" x="0px" y="0px"
	 viewBox="0 0 996 147" style="enable-background:new 0 0 996 147;" xml:space="preserve">
<style type="text/css">
	.st0{fill:#1D3A69;}
	.st1{fill:#E20917;}
</style>
<g>
	<g>
		<path class="st0" d="M509.38,95.21c13.6,16.47,43.49,17.24,44.45,2.68c0.38-7.67-12.07-12.08-23.18-13.6
			c-21.84-3.45-41.77-17.24-41.77-43.12c0-26.63,24.14-40.62,49.05-40.62c16.48,0,32.38,4.6,46.37,21.65l-22.42,17.24
			c-14.17-15.13-38.51-14.56-39.08,1.15c0.38,6.51,7.47,10.34,18.01,12.64c24.14,4.4,48.29,12.84,46.75,46.17
			c-1.15,26.25-28.74,40.62-53.65,40.62c-16.28,0-33.53-8.24-46.17-24.52L509.38,95.21z"/>
		<path class="st0" d="M715.15,138.13h-36.79l-8.82-27.21h-36.21l-8.43,27.21h-36.79L635.44,2.47h31.24L715.15,138.13z M661.3,80.45
			l-9.39-39.66h-0.96L641,80.45H661.3z"/>
		<path class="st0" d="M724.14,2.47h32.58l32.76,57.86l11.49,27.21l0.96-0.19c-0.19,0-3.64-23.38-3.83-23.38V2.47h34.1v135.65
			h-34.67l-30.66-53.45l-11.88-27.21l-0.95,0.19l4.4,26.25v54.23h-34.3V2.47z"/>
		<path class="st0" d="M868.78,95.21c13.6,16.47,43.49,17.24,44.45,2.68c0.38-7.67-12.07-12.08-23.18-13.6
			c-21.84-3.45-41.77-17.24-41.77-43.12c0-26.63,24.14-40.62,49.05-40.62c16.48,0,32.38,4.6,46.37,21.65l-22.42,17.24
			c-14.17-15.13-38.51-14.56-39.08,1.15c0.38,6.51,7.47,10.34,18.01,12.64c24.14,4.4,48.29,12.84,46.75,46.17
			c-1.15,26.25-28.74,40.62-53.65,40.62c-16.28,0-33.53-8.24-46.17-24.52L868.78,95.21z"/>
		<path class="st0" d="M996,138.13h-34.3V2.47H996V138.13z"/>
	</g>
	<g>
		<path class="st1" d="M36.64,146.93c-6.66,0-12.74-0.82-18.26-2.44s-9.9-4.32-13.16-8.07c-3.25-3.75-4.88-8.88-4.88-15.39
			c0-5.52,1.42-10.75,4.25-15.7c2.82-4.96,6.65-9.34,11.46-13.16s10.11-6.65,15.92-8.49c2.26-0.71,4.84-1.38,7.75-2.01
			c2.9-0.64,5.48-0.96,7.75-0.96c2.26,0,3.39,1.06,3.39,3.19c0,1.55-0.92,2.55-2.75,2.97c-2.26,0.56-4.57,0.95-6.9,1.17
			c-2.33,0.21-4.71,0.67-7.11,1.38c-4.81,1.55-9.31,3.92-13.48,7.11s-7.5,6.87-9.97,11.04s-3.71,8.59-3.71,13.26
			c0,5.23,1.42,9.33,4.25,12.31c2.82,2.97,6.5,5.09,11.04,6.37c4.52,1.27,9.4,1.91,14.64,1.91c7.36,0,15.53-0.96,24.52-2.87
			c8.98-1.91,18.07-4.64,27.27-8.17c9.2-3.54,17.89-7.71,26.1-12.52c8.2-4.81,15.28-10.11,21.22-15.92
			c5.94-5.8,10.04-11.96,12.31-18.47c0.42-1.12,0.78-2.33,1.06-3.6c0.28-1.28,0.42-2.55,0.42-3.83c0-3.96-1.03-7.04-3.08-9.23
			c-2.05-2.19-4.74-3.82-8.06-4.88c-3.33-1.06-6.87-1.73-10.61-2.01c-3.76-0.28-7.32-0.43-10.72-0.43c-7.36,0-14.75,0.32-22.18,0.96
			c-7.43,0.64-14.89,0.96-22.38,0.96c-4.25,0-8.7-0.35-13.38-1.06c-4.66-0.71-8.59-2.19-11.78-4.46c-3.18-2.26-4.78-5.73-4.78-10.41
			c0-6.08,1.92-11.46,5.73-16.12c3.82-4.67,8.88-8.7,15.17-12.1s13.16-6.19,20.59-8.38S99.03,5.1,106.25,4.1
			c7.21-0.98,13.65-1.49,19.31-1.49c3.26,0,7,0.18,11.25,0.53c4.24,0.36,8.38,1.11,12.41,2.23c4.03,1.14,7.36,2.87,9.97,5.21
			c2.62,2.33,3.93,5.41,3.93,9.23c0,3.11-0.78,5.38-2.33,6.79c-1.56,1.42-3.61,3.05-6.16,4.88c-0.28,0.15-0.6,0.32-0.96,0.54
			c-0.35,0.21-0.81,0.32-1.37,0.32c-0.85,0-1.67-0.32-2.44-0.96c-0.78-0.64-1.17-1.38-1.17-2.23c0-1.27,0.64-2.19,1.91-2.75
			c1.28-0.57,2.51-1.28,3.71-2.12c1.2-0.85,1.8-2.34,1.8-4.46c0-2.55-1.17-4.57-3.5-6.05c-2.34-1.49-5.24-2.58-8.7-3.29
			c-3.47-0.7-6.87-1.17-10.19-1.37c-3.32-0.22-6.04-0.32-8.17-0.32c-4.67,0-10.04,0.39-16.13,1.17c-6.08,0.78-12.34,1.99-18.78,3.61
			c-6.43,1.62-12.52,3.71-18.25,6.26c-5.73,2.55-10.54,5.62-14.43,9.23c-3.89,3.61-6.41,7.82-7.54,12.62
			c-0.14,0.57-0.25,1.1-0.32,1.59c-0.07,0.5-0.1,1.03-0.1,1.6c0,3.39,1.35,5.83,4.03,7.31c2.69,1.49,5.87,2.37,9.55,2.66
			c3.68,0.28,6.93,0.42,9.76,0.42c7.5,0,14.93-0.28,22.29-0.85c7.36-0.57,14.71-0.85,22.07-0.85c4.38,0,8.88,0.25,13.47,0.74
			c4.6,0.5,8.84,1.49,12.74,2.97c3.89,1.49,7.04,3.69,9.45,6.58c2.4,2.9,3.6,6.76,3.6,11.57c0,3.11-0.63,6.3-1.91,9.54
			c-2.55,7.22-6.93,13.98-13.16,20.27c-6.23,6.3-13.65,11.99-22.28,17.09c-8.64,5.09-17.8,9.48-27.49,13.16
			c-9.69,3.67-19.31,6.5-28.86,8.49C53.72,145.94,44.85,146.93,36.64,146.93z"/>
		<path class="st1" d="M171.4,140.14c-3.82,0-6.87-0.99-9.13-2.97s-3.92-4.42-4.98-7.32c-1.06-2.89-1.59-5.62-1.59-8.17
			c0-3.39,0.63-7.18,1.91-11.36c1.27-4.17,2.4-7.04,3.39-8.59c0-0.42-0.03-0.88-0.1-1.38c-0.08-0.49-0.11-0.95-0.11-1.37
			c0-3.83,0.57-7.78,1.7-11.89c1.27-4.81,3.53-9.23,6.79-13.26c3.26-4.03,7.32-7.32,12.21-9.87c4.88-2.54,10.22-3.82,16.02-3.82
			c6.79,0,12.02,1.8,15.71,5.41c3.67,3.61,5.52,8.31,5.52,14.11c0,8.07-1.46,15-4.35,20.8c-2.9,5.8-5.98,11.39-9.23,16.76
			c-0.57,1.13-1.06,2.06-1.49,2.76c-0.42,0.71,0,1.05,1.27,1.05c4.1,0,8.13-1.69,12.1-5.09c3.96-3.4,8.98-9.84,15.07-19.32
			c0.42-0.71,0.85-1.27,1.27-1.69c0.42-0.43,1.06-0.64,1.92-0.64h0.42c1.55,0,2.47,0.92,2.75,2.75c0,0.42-0.14,0.92-0.42,1.49
			c-3.54,6.23-7.11,11.61-10.72,16.13c-3.61,4.53-7.89,7.96-12.84,10.29c-4.96,2.33-11.17,3.58-18.68,3.71
			c-2.97,2.83-6.61,5.45-10.92,7.85C180.56,138.94,176.07,140.14,171.4,140.14z M172.68,134.2c2.82,0,5.66-0.88,8.49-2.65
			c2.82-1.77,5.23-3.43,7.21-4.99c-10.75-1.13-18.67-5.86-23.76-14.21c-0.15,0.99-0.42,2.48-0.85,4.46
			c-0.42,1.99-0.63,3.96-0.63,5.94c0,2.83,0.63,5.45,1.91,7.85C166.3,133,168.85,134.2,172.68,134.2z M191.77,120.61h2.12
			c2.97-3.53,5.84-7.56,8.6-12.1c2.75-4.52,4.98-9.23,6.68-14.11c1.69-4.88,2.55-9.52,2.55-13.9c0-4.1-1.06-7.6-3.19-10.5
			c-2.12-2.9-5.8-4.35-11.04-4.35c-3.54,0-6.97,0.74-10.29,2.23c-3.32,1.49-6.19,3.29-8.59,5.41l0.63,0.85
			c0.28-0.14,0.71-0.21,1.28-0.21c0.85,0,1.62,0.31,2.33,0.95c0.71,0.64,1.06,1.31,1.06,2.02c0,0.42-0.07,0.78-0.21,1.05
			c-0.15,0.29-0.36,0.57-0.64,0.85c-2.41,3.54-4.74,6.87-7,9.97c-2.26,3.11-4.39,6.65-6.36,10.61c-0.43,0.98-0.92,1.98-1.49,2.97
			c1.12,5.23,3.78,9.59,7.95,13.05C180.35,118.89,185.54,120.61,191.77,120.61z"/>
		<path class="st1" d="M244.83,139.07c-0.71,0-1.49-0.21-2.33-0.63c-0.85-0.43-1.27-0.99-1.27-1.7c0-0.42,0.07-0.92,0.21-1.49
			c0.14-0.56,0.28-1.06,0.42-1.49c1.55-3.53,3.75-8.07,6.58-13.58c2.83-5.52,5.8-11.36,8.91-17.5c3.12-6.16,5.73-11.85,7.86-17.09
			c2.12-5.23,3.18-9.27,3.18-12.1c0-0.85-0.17-1.66-0.53-2.44c-0.35-0.78-1.1-1.17-2.23-1.17c-1.84,0-4,0.88-6.48,2.65
			c-2.48,1.77-4.98,4.14-7.53,7.11c-1.42,1.7-3.26,4.14-5.52,7.32c-2.26,3.19-4.6,6.58-7,10.19c-2.41,3.6-4.64,6.97-6.68,10.08
			c-2.06,3.12-3.64,5.3-4.78,6.58c-0.99,1.42-2.19,2.12-3.61,2.12c-0.98,0-1.73-0.35-2.23-1.06c-0.49-0.71-0.46-1.55,0.1-2.55
			c1.14-2.12,2.87-4.96,5.2-8.49c2.34-3.54,4.78-7.22,7.32-11.04c2.55-3.83,4.88-7.22,7-10.19c2.12-2.97,3.47-4.88,4.03-5.73
			c2.41-3.12,5.34-6.09,8.81-8.92c3.46-2.82,7.46-4.24,11.99-4.24c6.5,0,9.76,2.9,9.76,8.7c0,2.69-0.64,5.8-1.91,9.33
			c-1.28,3.54-3.12,7.64-5.52,12.31c4.52-4.66,8.45-8.49,11.78-11.46c3.32-2.97,6.61-5.73,9.87-8.27c3.25-2.69,6.65-4.03,10.18-4.03
			c2.97,0,5.48,1.06,7.54,3.18c2.05,2.12,3.07,5.24,3.07,9.34c0,1.27-0.1,2.72-0.32,4.35c-0.21,1.62-0.67,3.85-1.37,6.68
			c4.8-5.23,9.93-9.84,15.38-13.8c5.45-3.96,10.54-7.25,15.28-9.87c4.74-2.62,8.45-4.27,11.14-4.98c1.42-0.42,2.79-0.78,4.14-1.06
			c1.35-0.28,2.58-0.42,3.71-0.42c1.42,0,2.55,0.35,3.4,1.06c0.85,0.71,1.27,2.05,1.27,4.03c0,1.98-1.27,4.78-3.82,8.38
			c-2.55,3.61-5.63,7.72-9.23,12.31c-3.61,4.59-7.05,9.23-10.29,13.9c-3.26,4.66-5.6,9.05-7,13.15c-0.72,2.41-1.06,4.18-1.06,5.31
			c0,3.82,1.76,5.73,5.3,5.73c2.41,0,5.31-1.13,8.7-3.39c3.68-2.4,7.64-6.3,11.88-11.68c4.25-5.37,8.2-10.89,11.88-16.55
			c0.85-1.27,1.99-1.91,3.4-1.91c0.98,0,1.62,0.25,1.91,0.74c0.28,0.5,0.42,0.96,0.42,1.38c0,0.71-0.67,2.41-2.02,5.09
			c-1.35,2.69-3.58,6.08-6.68,10.18c-3.96,5.24-7.53,9.38-10.72,12.42c-3.19,3.05-5.77,5.13-7.75,6.26
			c-1.84,1.14-3.75,1.95-5.73,2.44c-1.99,0.49-3.96,0.74-5.95,0.74c-4.52,0-7.78-0.96-9.76-2.87c-1.99-1.91-2.97-4.21-2.97-6.9
			c0-3.68,1.23-7.85,3.71-12.52c2.47-4.66,5.41-9.37,8.81-14.11c3.39-4.74,6.61-9.02,9.65-12.84c3.04-3.82,5.13-6.58,6.26-8.27
			c0.56-0.71,0.85-1.42,0.85-2.12c0-1.13-0.78-1.7-2.33-1.7c-0.85,0-1.84,0.22-2.97,0.64c-5.8,2.41-11.54,5.7-17.19,9.87
			s-10.72,8.38-15.17,12.62c-4.46,4.25-7.88,7.78-10.29,10.61c-0.56,1.99-1.35,4.64-2.33,7.96c-0.99,3.32-2.33,6.26-4.03,8.8
			c-1.7,2.55-3.89,3.83-6.58,3.83c-1.27,0-2.3-0.46-3.07-1.38c-0.79-0.92-1.17-1.87-1.17-2.87c0-3.68,1.12-7.07,3.39-10.18
			c2.26-3.12,4.88-6.02,7.85-8.7c0.71-2.4,1.7-5.55,2.97-9.45c1.28-3.89,1.91-7.18,1.91-9.86c0-2.26-0.53-4.03-1.59-5.31
			c-1.06-1.27-2.37-1.91-3.93-1.91c-1.84,0-3.68,0.71-5.52,2.12c-6.93,4.81-13.08,10.72-18.46,17.72
			c-5.38,7-10.18,13.83-14.43,20.47c-2.26,3.26-4.35,6.66-6.26,10.19c-1.91,3.54-4,6.93-6.26,10.19c-0.42,0.56-0.85,0.98-1.27,1.27
			C246.31,138.94,245.68,139.07,244.83,139.07z"/>
		<path class="st1" d="M381.5,140.14c-3.82,0-6.87-0.99-9.13-2.97s-3.92-4.42-4.98-7.32c-1.06-2.89-1.59-5.62-1.59-8.17
			c0-3.39,0.63-7.18,1.91-11.36c1.27-4.17,2.4-7.04,3.39-8.59c0-0.42-0.03-0.88-0.1-1.38c-0.08-0.49-0.11-0.95-0.11-1.37
			c0-3.83,0.57-7.78,1.7-11.89c1.27-4.81,3.53-9.23,6.79-13.26c3.26-4.03,7.32-7.32,12.21-9.87c4.88-2.54,10.22-3.82,16.02-3.82
			c6.79,0,12.02,1.8,15.71,5.41c3.67,3.61,5.52,8.31,5.52,14.11c0,8.07-1.46,15-4.35,20.8c-2.9,5.8-5.98,11.39-9.23,16.76
			c-0.57,1.13-1.06,2.06-1.49,2.76c-0.42,0.71,0,1.05,1.27,1.05c4.1,0,8.13-1.69,12.1-5.09c3.96-3.4,8.98-9.84,15.07-19.32
			c0.42-0.71,0.85-1.27,1.27-1.69c0.42-0.43,1.06-0.64,1.92-0.64h0.42c1.55,0,2.47,0.92,2.75,2.75c0,0.42-0.14,0.92-0.42,1.49
			c-3.54,6.23-7.11,11.61-10.72,16.13c-3.61,4.53-7.89,7.96-12.84,10.29c-4.96,2.33-11.17,3.58-18.68,3.71
			c-2.97,2.83-6.61,5.45-10.92,7.85C390.66,138.94,386.17,140.14,381.5,140.14z M382.78,134.2c2.82,0,5.66-0.88,8.49-2.65
			c2.82-1.77,5.23-3.43,7.21-4.99c-10.75-1.13-18.67-5.86-23.76-14.21c-0.15,0.99-0.42,2.48-0.85,4.46
			c-0.42,1.99-0.63,3.96-0.63,5.94c0,2.83,0.63,5.45,1.91,7.85C376.4,133,378.95,134.2,382.78,134.2z M401.87,120.61h2.12
			c2.97-3.53,5.84-7.56,8.6-12.1c2.75-4.52,4.98-9.23,6.68-14.11c1.69-4.88,2.55-9.52,2.55-13.9c0-4.1-1.06-7.6-3.19-10.5
			c-2.12-2.9-5.8-4.35-11.04-4.35c-3.54,0-6.97,0.74-10.29,2.23c-3.32,1.49-6.19,3.29-8.59,5.41l0.63,0.85
			c0.28-0.14,0.71-0.21,1.28-0.21c0.85,0,1.62,0.31,2.33,0.95s1.06,1.31,1.06,2.02c0,0.42-0.07,0.78-0.21,1.05
			c-0.15,0.29-0.36,0.57-0.64,0.85c-2.41,3.54-4.74,6.87-7,9.97c-2.26,3.11-4.39,6.65-6.36,10.61c-0.43,0.98-0.92,1.98-1.49,2.97
			c1.12,5.23,3.78,9.59,7.95,13.05C390.45,118.89,395.64,120.61,401.87,120.61z"/>
		<path class="st1" d="M447.29,137.38c-6.93,0-12.25-1.42-15.92-4.25c-3.68-2.82-5.52-5.79-5.52-8.91c0-2.26,0.95-4.27,2.86-6.04
			c1.91-1.77,5.13-2.66,9.66-2.66c2.82,0,6.22,0.43,10.18,1.28c2.97,0.71,6.12,1.62,9.45,2.75c3.32,1.14,6.75,1.63,10.29,1.49
			c0.98-1.55,1.55-2.82,1.69-3.82c0.14-0.98,0.22-2.19,0.22-3.61c0-4.66-0.74-8.56-2.23-11.67c-1.49-3.12-3.19-6.16-5.09-9.13
			s-3.5-6.58-4.78-10.83c-1.84,3.12-4.17,7.18-7,12.21c-2.83,5.02-7.5,11.85-14.01,20.47c-0.42,0.71-1.27,1.06-2.55,1.06
			c-2.12,0-3.18-0.92-3.18-2.75c0-0.43,0.31-1.06,0.95-1.92c0.64-0.85,2.09-3.04,4.35-6.58c2.55-4.1,5.52-8.73,8.91-13.89
			c3.39-5.16,6.65-10.85,9.77-17.09c0.14-2.4,0.63-4.73,1.49-7c0.85-2.26,1.83-4.31,2.97-6.15c1.55-2.55,3.18-4.42,4.88-5.63
			c1.7-1.2,3.26-1.8,4.67-1.8c2.69,0,4.03,1.55,4.03,4.66c0,2.12-0.85,4.88-2.55,8.28c-0.99,2.12-2.27,3.92-3.83,5.41
			c-1.55,1.49-2.9,2.8-4.03,3.93c0.28,3.54,1.13,6.72,2.55,9.55c1.42,2.83,3.01,5.59,4.78,8.27c1.77,2.69,3.29,5.6,4.57,8.7
			c1.27,3.12,1.91,6.87,1.91,11.25c0,2.82-0.5,5.44-1.49,7.85c3.11,0.14,6.33-1.03,9.65-3.51c3.32-2.47,6.5-5.69,9.55-9.65
			c3.04-3.96,5.76-7.99,8.17-12.1c0.71-0.98,1.62-1.49,2.76-1.49c0.7,0,1.41,0.22,2.12,0.64c0.71,0.42,1.06,1.13,1.06,2.12
			c0,0.56-0.21,1.27-0.64,2.12c-4.1,7.36-8.03,13.05-11.78,17.08c-3.75,4.03-7.53,6.83-11.35,8.38c-3.83,1.55-8.07,2.47-12.74,2.75
			c-3.54,3.26-7.32,5.77-11.36,7.54C456.73,136.49,452.24,137.38,447.29,137.38z M446.23,132.29c3.26,0,6.08-0.49,8.49-1.49
			c2.4-0.99,5.02-2.4,7.85-4.25c-2.97-0.42-5.45-0.95-7.43-1.59c-1.99-0.64-4.53-1.3-7.64-2.01c-3.96-0.85-7.07-1.28-9.33-1.28
			c-4.1,0-6.16,0.99-6.16,2.97c0,1.56,1.35,3.22,4.03,4.99C438.73,131.41,442.12,132.29,446.23,132.29z"/>
	</g>
</g>
</svg>
