<svg width="1587" height="391" viewBox="0 0 1587 391" fill="none" xmlns="http://www.w3.org/2000/svg">
<path d="M825.631 189.559V190.086V236.596C825.631 262.602 846.728 283.637 872.713 283.637C898.741 283.637 919.794 262.558 919.794 236.596V190.086V189.559V143.048C919.794 117.042 898.697 96.0076 872.713 96.0076C846.684 96.0076 825.631 117.086 825.631 143.048V189.559Z" fill="#7C8896"/>
<path d="M825.631 295.922V296.449V342.959C825.631 368.965 846.728 390 872.713 390C898.741 390 919.794 368.921 919.794 342.959V296.449V295.922V249.411C919.794 223.405 898.697 202.371 872.713 202.371C846.684 202.371 825.631 223.45 825.631 249.411V295.922Z" fill="#7C8896"/>
<path d="M825.632 190.089H826.159H872.709C898.737 190.089 919.79 169.01 919.79 143.048C919.79 117.042 898.693 96.0076 872.709 96.0076H826.159H825.632H779.081C753.053 96.0113 732 117.086 732 143.048C732 169.055 753.097 190.089 779.081 190.089H825.632Z" fill="#7C8896"/>
<path d="M872.34 315.565L872.713 315.937L905.63 348.825C924.036 367.216 953.835 367.183 972.212 348.825C990.618 330.435 990.585 300.661 972.212 282.3L939.295 249.411L938.923 249.039L906.006 216.151C887.599 197.76 857.8 197.793 839.423 216.151C821.017 234.541 821.05 264.315 839.423 282.676L872.34 315.565Z" fill="#7C8896"/>
<path d="M799.135 241.18C770.94 241.18 748 218.259 748 190.088C748 161.916 770.94 139 799.135 139C827.331 139 850.271 161.92 850.271 190.092C850.271 218.263 827.331 241.18 799.135 241.18ZM799.135 147.102C775.411 147.102 756.109 166.387 756.109 190.092C756.109 213.796 775.411 233.082 799.135 233.082C822.86 233.082 842.162 213.796 842.162 190.092C842.162 166.387 822.86 147.102 799.135 147.102Z" fill="#7C8896"/>
<path d="M1125.63 189.559V190.086V236.596C1125.63 262.602 1146.73 283.637 1172.71 283.637C1198.74 283.637 1219.79 262.558 1219.79 236.596V190.086V189.559V143.048C1219.79 117.042 1198.7 96.0076 1172.71 96.0076C1146.68 96.0076 1125.63 117.086 1125.63 143.048V189.559Z" fill="#7C8896"/>
<path d="M1125.63 295.922V296.449V342.959C1125.63 368.965 1146.73 390 1172.71 390C1198.74 390 1219.79 368.921 1219.79 342.959V296.449V295.922V249.411C1219.79 223.405 1198.7 202.371 1172.71 202.371C1146.68 202.371 1125.63 223.45 1125.63 249.411V295.922Z" fill="#7C8896"/>
<path d="M1125.63 190.089H1126.16H1172.71C1198.74 190.089 1219.79 169.01 1219.79 143.048C1219.79 117.042 1198.69 96.0076 1172.71 96.0076H1126.16H1125.63H1079.08C1053.05 96.0113 1032 117.086 1032 143.048C1032 169.055 1053.1 190.089 1079.08 190.089H1125.63Z" fill="#7C8896"/>
<path d="M1172.34 315.565L1172.71 315.937L1205.63 348.825C1224.04 367.216 1253.83 367.183 1272.21 348.825C1290.62 330.435 1290.59 300.661 1272.21 282.3L1239.29 249.411L1238.92 249.039L1206.01 216.151C1187.6 197.76 1157.8 197.793 1139.42 216.151C1121.02 234.541 1121.05 264.315 1139.42 282.676L1172.34 315.565Z" fill="#7C8896"/>
<path d="M1075.14 321.18C1046.94 321.18 1024 298.259 1024 270.088C1024 241.916 1046.94 219 1075.14 219C1103.33 219 1126.27 241.92 1126.27 270.092C1126.27 298.263 1103.33 321.18 1075.14 321.18ZM1075.14 227.102C1051.41 227.102 1032.11 246.387 1032.11 270.092C1032.11 293.796 1051.41 313.082 1075.14 313.082C1098.86 313.082 1118.16 293.796 1118.16 270.092C1118.16 246.387 1098.86 227.102 1075.14 227.102Z" fill="#7C8896"/>
<path d="M1425.63 189.559V190.086V236.596C1425.63 262.602 1446.73 283.637 1472.71 283.637C1498.74 283.637 1519.79 262.558 1519.79 236.596V190.086V189.559V143.048C1519.79 117.042 1498.7 96.0076 1472.71 96.0076C1446.68 96.0076 1425.63 117.086 1425.63 143.048V189.559Z" fill="#7C8896"/>
<path d="M1425.63 295.922V296.449V342.959C1425.63 368.965 1446.73 390 1472.71 390C1498.74 390 1519.79 368.921 1519.79 342.959V296.449V295.922V249.411C1519.79 223.405 1498.7 202.371 1472.71 202.371C1446.68 202.371 1425.63 223.45 1425.63 249.411V295.922Z" fill="#7C8896"/>
<path d="M1425.63 190.089H1426.16H1472.71C1498.74 190.089 1519.79 169.01 1519.79 143.048C1519.79 117.042 1498.69 96.0076 1472.71 96.0076H1426.16H1425.63H1379.08C1353.05 96.0113 1332 117.086 1332 143.048C1332 169.055 1353.1 190.089 1379.08 190.089H1425.63Z" fill="#7C8896"/>
<path d="M1472.34 315.565L1472.71 315.937L1505.63 348.825C1524.04 367.216 1553.83 367.183 1572.21 348.825C1590.62 330.435 1590.59 300.661 1572.21 282.3L1539.29 249.411L1538.92 249.039L1506.01 216.151C1487.6 197.76 1457.8 197.793 1439.42 216.151C1421.02 234.541 1421.05 264.315 1439.42 282.676L1472.34 315.565Z" fill="#7C8896"/>
<path d="M1375.14 390.18C1346.94 390.18 1324 367.259 1324 339.088C1324 310.916 1346.94 288 1375.14 288C1403.33 288 1426.27 310.92 1426.27 339.092C1426.27 367.263 1403.33 390.18 1375.14 390.18ZM1375.14 296.102C1351.41 296.102 1332.11 315.387 1332.11 339.092C1332.11 362.796 1351.41 382.082 1375.14 382.082C1398.86 382.082 1418.16 362.796 1418.16 339.092C1418.16 315.387 1398.86 296.102 1375.14 296.102Z" fill="#7C8896"/>
<line y1="121.5" x2="111" y2="121.5" stroke="#003770"/>
<line y1="167.5" x2="111" y2="167.5" stroke="#003770"/>
<line y1="213.5" x2="111" y2="213.5" stroke="#003770"/>
<line y1="259.5" x2="111" y2="259.5" stroke="#003770"/>
<line y1="305.5" x2="111" y2="305.5" stroke="#003770"/>
<line y1="351.5" x2="111" y2="351.5" stroke="#003770"/>
<path d="M223.631 189.559V190.086V236.596C223.631 262.602 244.728 283.637 270.713 283.637C296.741 283.637 317.794 262.558 317.794 236.596V190.086V189.559V143.048C317.794 117.042 296.697 96.0076 270.713 96.0076C244.684 96.0076 223.631 117.086 223.631 143.048V189.559Z" fill="#7C8896"/>
<path d="M223.631 295.922V296.449V342.959C223.631 368.965 244.728 390 270.713 390C296.741 390 317.794 368.921 317.794 342.959V296.449V295.922V249.411C317.794 223.405 296.697 202.371 270.713 202.371C244.684 202.371 223.631 223.45 223.631 249.411V295.922Z" fill="#7C8896"/>
<path d="M223.632 190.089H224.159H270.709C296.737 190.089 317.79 169.01 317.79 143.048C317.79 117.042 296.693 96.0076 270.709 96.0076H224.159H223.632H177.081C151.053 96.0113 130 117.086 130 143.048C130 169.055 151.097 190.089 177.081 190.089H223.632Z" fill="#7C8896"/>
<path d="M270.34 315.565L270.713 315.937L303.63 348.825C322.036 367.216 351.835 367.183 370.212 348.825C388.618 330.435 388.585 300.661 370.212 282.3L337.295 249.411L336.923 249.039L304.006 216.151C285.599 197.76 255.8 197.793 237.423 216.151C219.017 234.541 219.05 264.315 237.423 282.676L270.34 315.565Z" fill="#7C8896"/>
<path d="M270.709 102.18C242.513 102.18 219.574 79.2594 219.574 51.088C219.574 22.9165 242.513 0 270.709 0C298.905 0 321.844 22.9202 321.844 51.0916C321.844 79.2631 298.905 102.18 270.709 102.18ZM270.709 8.1016C246.984 8.1016 227.682 27.3871 227.682 51.0916C227.682 74.7962 246.984 94.0817 270.709 94.0817C294.434 94.0817 313.736 74.7962 313.736 51.0916C313.736 27.3871 294.434 8.1016 270.709 8.1016Z" fill="#7C8896"/>
<path d="M523.631 189.559V190.086V236.596C523.631 262.602 544.728 283.637 570.713 283.637C596.741 283.637 617.794 262.558 617.794 236.596V190.086V189.559V143.048C617.794 117.042 596.697 96.0076 570.713 96.0076C544.684 96.0076 523.631 117.086 523.631 143.048V189.559Z" fill="#7C8896"/>
<path d="M523.631 295.922V296.449V342.959C523.631 368.965 544.728 390 570.713 390C596.741 390 617.794 368.921 617.794 342.959V296.449V295.922V249.411C617.794 223.405 596.697 202.371 570.713 202.371C544.684 202.371 523.631 223.45 523.631 249.411V295.922Z" fill="#7C8896"/>
<path d="M523.632 190.089H524.159H570.709C596.737 190.089 617.79 169.01 617.79 143.048C617.79 117.042 596.693 96.0076 570.709 96.0076H524.159H523.632H477.081C451.053 96.0113 430 117.086 430 143.048C430 169.055 451.097 190.089 477.081 190.089H523.632Z" fill="#7C8896"/>
<path d="M570.34 315.565L570.713 315.937L603.63 348.825C622.036 367.216 651.835 367.183 670.212 348.825C688.618 330.435 688.585 300.661 670.212 282.3L637.295 249.411L636.923 249.039L604.006 216.151C585.599 197.76 555.8 197.793 537.423 216.151C519.017 234.541 519.05 264.315 537.423 282.676L570.34 315.565Z" fill="#7C8896"/>
<path d="M524.135 147.18C495.94 147.18 473 124.259 473 96.088C473 67.9165 495.94 45 524.135 45C552.331 45 575.271 67.9202 575.271 96.0916C575.271 124.263 552.331 147.18 524.135 147.18ZM524.135 53.1016C500.411 53.1016 481.109 72.3871 481.109 96.0916C481.109 119.796 500.411 139.082 524.135 139.082C547.86 139.082 567.162 119.796 567.162 96.0916C567.162 72.3871 547.86 53.1016 524.135 53.1016Z" fill="#7C8896"/>
</svg>
