<?xml version="1.0" encoding="utf-8"?>
<!-- Generator: Adobe Illustrator 24.1.1, SVG Export Plug-In . SVG Version: 6.00 Build 0)  -->
<svg version="1.1" id="Capa_1" xmlns="http://www.w3.org/2000/svg" xmlns:xlink="http://www.w3.org/1999/xlink" x="0px" y="0px"
	 viewBox="0 0 300 300" style="enable-background:new 0 0 300 300;" xml:space="preserve">
<style type="text/css">
	.st0{fill:#939393;}
	.st1{fill:#CA9E67;}
	.st2{fill:#E24453;enable-background:new    ;}
	.st3{fill:#6665A5;}
	.st4{fill:#2B4C6B;enable-background:new    ;}
	.st5{fill:#68AA65;}
	.st6{fill:#659BA8;}
</style>
<g>
	<path class="st0" d="M124.86,150.38c9.12-0.22,16.65-8.07,16.49-17.2c-0.16-9.16-8.04-16.86-17.03-16.63
		c-9.11,0.23-16.68,8.09-16.53,17.18C107.93,142.81,115.92,150.59,124.86,150.38z"/>
	<path class="st0" d="M240.51,125.52c8.97,0.05,16.87-7.84,16.88-16.88c0.02-9.05-7.79-16.88-16.84-16.9
		c-9.03-0.02-16.84,7.76-16.91,16.86C223.57,117.56,231.45,125.47,240.51,125.52z"/>
	<path class="st0" d="M174.09,108.87c9.03,0.14,16.94-7.54,17.12-16.63c0.17-8.89-7.68-16.89-16.73-17.02
		c-9.01-0.13-16.95,7.59-17.1,16.63C157.22,100.81,165,108.74,174.09,108.87z"/>
	<path class="st0" d="M240.33,174.75c-0.05,9.15,7.56,16.94,16.65,17.04c9,0.09,16.86-7.71,16.93-16.8
		c0.07-9.1-7.6-16.94-16.67-17.04C248.23,157.85,240.38,165.65,240.33,174.75z"/>
	<path class="st1" d="M83.38,131.53c-3.73,27.67,11.52,51.68,38.66,57.9c7.19,1.65,14.78,1.45,22.13,2.45
		c7.32,0.99,14.89,1.52,21.8,3.88c10.84,3.69,16.15,13.46,14.11,24.77c-1.42,7.86-3.94,15.53-5.91,23.29
		c-2.6,10.23-1.04,13.07,9.49,13.73c25.04,1.57,48.96-2.69,70.08-17c31.63-21.43,43.73-52.92,45.25-91.56
		c-0.56-5.03-0.9-11.91-2.13-18.62C286.6,74.5,233.64,35.41,176.01,43.11C133.59,48.78,90.07,81.92,83.38,131.53z M281.74,174.88
		c-0.01,13.54-11.07,24.42-24.83,24.42c-13.5,0-24.17-10.63-24.26-24.17c-0.09-13.91,10.42-24.57,24.32-24.64
		C270.71,150.42,281.75,161.3,281.74,174.88z M240.73,84.05c13.48,0.04,24.64,11.44,24.4,24.94c-0.24,13.45-11.03,24.04-24.51,24.04
		c-13.95-0.01-24.53-10.57-24.5-24.46C216.16,94.79,226.97,84.01,240.73,84.05z M174.21,67.42c13.54-0.1,24.52,10.99,24.45,24.69
		c-0.07,13.96-10.66,24.45-24.58,24.37c-13.84-0.08-24.36-10.86-24.18-24.77C150.07,78.23,160.79,67.52,174.21,67.42z M149.04,133.5
		c-0.01,13.83-10.68,24.37-24.64,24.34c-13.44-0.02-24.29-10.73-24.45-24.11c-0.16-13.57,10.79-24.58,24.54-24.66
		C138.36,108.99,149.05,119.63,149.04,133.5z"/>
	<path class="st2" d="M78.15,128.06c0-8.62-5.64-15.91-13.42-18.41c4.37-9.85,3.68-20.13-2.74-30.81
		c-3.27-5.43-6.8-10.71-10.02-16.16c-2.53-4.27-2.44-8.43,0.51-12.31c1.91-2.51,1.91-4.55,0.34-6.43c-1.7-2.02-3.61-2.35-6.65-0.99
		c-8.01,3.58-15.26,8.27-20.75,13.4c-16.4,14.71-20,34.12-10.8,53.22C6.72,112.03,1,119.38,1,128.06c0,10.66,8.61,19.28,19.23,19.34
		v0.01v4.66v14.47v4.66v0.22v4.66v14.47v4.66v0.22v4.66v14.47v4.66v0.22v19.12c0,10.69,8.67,19.34,19.34,19.34
		c10.69,0,19.34-8.67,19.34-19.34v-19.12v-0.22v-4.66v-14.47v-4.66v-0.22v-4.66v-14.47v-4.66v-0.22v-4.66v-14.47v-4.66v-0.01
		C69.55,147.34,78.15,138.7,78.15,128.06z"/>
	<circle class="st3" cx="124.49" cy="133.45" r="25.05"/>
	<circle class="st4" cx="174.28" cy="91.95" r="25.05"/>
	<circle class="st5" cx="240.63" cy="108.53" r="25.05"/>
	<circle class="st6" cx="257.2" cy="174.9" r="25.05"/>
</g>
</svg>
