<?xml version="1.0" encoding="utf-8"?>
<!-- Generator: Adobe Illustrator 24.1.1, SVG Export Plug-In . SVG Version: 6.00 Build 0)  -->
<svg version="1.1" id="Capa_1" xmlns="http://www.w3.org/2000/svg" xmlns:xlink="http://www.w3.org/1999/xlink" x="0px" y="0px"
	 viewBox="0 0 300 300" style="enable-background:new 0 0 300 300;" xml:space="preserve">
<style type="text/css">
	.st0{fill:#003770;}
	.st1{fill:#00366F;}
	.st2{fill:#00366E;}
	.st3{fill:none;}
	.st4{fill:#CA9E67;enable-background:new    ;}
	.st5{fill:#8E715A;}
	.st6{fill:#68AA65;}
	.st7{fill:#022342;enable-background:new    ;}
	.st8{opacity:0.8;fill:#FCEA10;enable-background:new    ;}
	.st9{fill:#2B4C6B;enable-background:new    ;}
	.st10{fill:#E24453;enable-background:new    ;}
	.st11{fill:#212121;enable-background:new    ;}
	.st12{fill:#CA9E67;}
	.st13{fill:#828282;}
</style>
<g>
	<path class="st7" d="M261.69,161.83l-0.31-0.41L253.45,150l7.93-11.43l0.31-0.41l25.29-36.41c14.14-20.31,9.09-48.28-11.22-62.38
		c-20.34-14.14-48.28-9.12-62.42,11.22l-14.48,20.82l-14.48-20.82c-14.1-20.34-42.04-25.36-62.38-11.22
		c-20.34,14.1-25.39,42.07-11.26,62.38l25.29,36.41l0.31,0.41l7.93,11.43l-7.93,11.43l-0.31,0.41l-25.29,36.41
		c-14.14,20.34-9.09,48.28,11.26,62.42c20.34,14.1,48.28,9.09,62.38-11.26l14.48-20.82l14.48,20.82
		c14.14,20.34,42.07,25.36,62.42,11.26c20.31-14.14,25.36-42.07,11.22-62.42L261.69,161.83z M146.82,251.61
		c-14.95,0-27.12-12.14-27.12-27.12c0-14.99,12.17-27.12,27.12-27.12c14.99,0,27.12,12.14,27.12,27.12
		C173.94,239.47,161.81,251.61,146.82,251.61z M250.91,251.61c-14.99,0-27.12-12.14-27.12-27.12c0-14.99,12.14-27.12,27.12-27.12
		c14.99,0,27.12,12.14,27.12,27.12C278.03,239.47,265.89,251.61,250.91,251.61z"/>
	<path class="st7" d="M36.23,66.97c0,3.29,3.56,5.97,7.97,5.97h15.83c0,0,0,0,0.03,0h15.83c0.58,0,1.12-0.03,1.63-0.14v4.27
		c-0.51-0.1-1.05-0.14-1.63-0.14H60.06c-0.03,0-0.03,0-0.03,0H44.19c-4.41,0-7.97,2.64-7.97,5.93s3.56,5.97,7.97,5.97h15.83
		c0,0,0,0,0.03,0h15.83c0.58,0,1.12-0.03,1.63-0.14v4.24c-0.51-0.1-1.05-0.14-1.63-0.14H60.06v0.03c-0.03,0-0.03-0.03-0.03-0.03
		H44.19c-4.41,0-7.97,2.68-7.97,5.97s3.56,5.97,7.97,5.97h15.83c0,0,0,0,0.03,0h15.83c0.58,0,1.12-0.03,1.63-0.14v4.24
		c-0.51-0.1-1.05-0.14-1.63-0.14H60.06c-0.03,0-0.03,0-0.03,0H44.19c-4.41,0-7.97,2.68-7.97,5.97s3.56,5.97,7.97,5.97h15.83
		c0,0,0,0,0.03,0h15.83c0.58,0,1.12-0.03,1.63-0.14v4.24c-0.51-0.1-1.05-0.14-1.63-0.14H60.06c-0.03,0-0.03,0-0.03,0H44.19
		c-4.41,0-7.97,2.68-7.97,5.97c0,3.29,3.56,5.97,7.97,5.97h15.83c0,0,0,0,0.03,0h15.83c0.58,0,1.12-0.03,1.63-0.14v5.26
		c-20.04,0-36.24,16.21-36.24,36.24v72.08c0,6.71,1.83,12.99,4.98,18.34c-2.03,0.27-4.1,0.37-6.2,0.31
		C20.49,268.12,5,251.91,5,232.32V67.58c0-30.04,36.58-51.57,67.71-22.44H60.06c-0.03,0-0.03,0-0.03,0H44.19
		c-4.41,0-7.97,2.64-7.97,5.93s3.56,5.97,7.97,5.97h15.83c0,0,0,0,0.03,0h15.83c0.58,0,1.12-0.03,1.63-0.14v4.24
		c-0.51-0.07-1.05-0.1-1.63-0.1H60.06c-0.03,0-0.03,0-0.03,0H44.19C39.79,61.04,36.23,63.68,36.23,66.97z"/>
</g>
</svg>
