<?xml version="1.0" encoding="utf-8"?>
<!-- Generator: Adobe Illustrator 24.1.1, SVG Export Plug-In . SVG Version: 6.00 Build 0)  -->
<svg version="1.1" id="Capa_1" xmlns="http://www.w3.org/2000/svg" xmlns:xlink="http://www.w3.org/1999/xlink" x="0px" y="0px"
	 viewBox="0 0 300 300" style="enable-background:new 0 0 300 300;" xml:space="preserve">
<style type="text/css">
	.st0{fill:#003770;}
	.st1{fill:#00366F;}
	.st2{fill:#00366E;}
	.st3{fill:none;}
	.st4{fill:#CA9E67;enable-background:new    ;}
	.st5{fill:#8E715A;}
	.st6{fill:#68AA65;}
	.st7{fill:#022342;enable-background:new    ;}
	.st8{opacity:0.8;fill:#FCEA10;enable-background:new    ;}
	.st9{fill:#2B4C6B;enable-background:new    ;}
	.st10{fill:#E24453;enable-background:new    ;}
	.st11{fill:#212121;enable-background:new    ;}
	.st12{fill:#CA9E67;}
	.st13{fill:#828282;}
</style>
<g>
	<path class="st11" d="M227.18,193.96c17.98,0,32.6-14.62,32.6-32.6s-14.62-32.6-32.6-32.6 M227.18,133.26
		c15.49,0,28.13,12.59,28.13,28.13c0,15.49-12.59,28.09-28.13,28.09"/>
	<g>
		<path class="st12" d="M120.25,29.61v0.12v12.22c0,6.84,5.55,12.39,12.39,12.39l0,0c6.84,0,12.39-5.55,12.39-12.39V29.73v-0.12
			V17.39c0-6.84-5.55-12.39-12.39-12.39l0,0c-6.84,0-12.39,5.55-12.39,12.39V29.61z"/>
		<path class="st12" d="M161.23,55v0.12v9.16c0,5.14,4.14,9.28,9.28,9.28l0,0c5.14,0,9.28-4.14,9.28-9.28v-9.16V55v-9.16
			c0-5.14-4.14-9.28-9.28-9.28l0,0c-5.14,0-9.28,4.14-9.28,9.28V55z"/>
	</g>
	<path class="st11" d="M227.06,237.08h-38.24h-0.46h-38.24c-0.04,0-0.08,0-0.12,0s-0.08,0-0.12,0h-38.24h-0.46H72.94
		c-21.38,0-38.69,12.97-38.69,28.96S51.57,295,72.94,295h38.24h0.46h38.24c0.04,0,0.08,0,0.12,0s0.08,0,0.12,0h38.24h0.46h38.24
		c21.38,0,38.69-12.97,38.69-28.96S248.43,237.08,227.06,237.08z"/>
	<path class="st11" d="M182.85,82.31h-32.65h-0.46h-32.65c-24.48,0-44.29,19.84-44.29,44.29v33.1v33.1
		c0,24.48,19.84,44.29,44.29,44.29h32.65h0.46h32.65c24.48,0,44.29-19.84,44.29-44.29v-33.1v-33.1
		C227.18,102.15,207.34,82.31,182.85,82.31z"/>
</g>
</svg>
