<?xml version="1.0" encoding="utf-8"?>
<!-- Generator: Adobe Illustrator 24.1.1, SVG Export Plug-In . SVG Version: 6.00 Build 0)  -->
<svg version="1.1" id="Capa_1" xmlns="http://www.w3.org/2000/svg" xmlns:xlink="http://www.w3.org/1999/xlink" x="0px" y="0px"
	 viewBox="0 0 300 300" style="enable-background:new 0 0 300 300;" xml:space="preserve">
<style type="text/css">
	.st0{fill:#003770;}
	.st1{fill:none;}
	.st2{fill:#FFFFFF;}
</style>
<g>
	<circle class="st0" cx="34.74" cy="28.09" r="27.09"/>
	<circle class="st0" cx="150" cy="28.09" r="27.09"/>
	<circle class="st0" cx="265.26" cy="28.09" r="27.09"/>
	<path class="st0" d="M92.32,37.8h0.11h9.6c5.37,0,9.71-4.35,9.71-9.71l0,0c0-5.37-4.35-9.71-9.71-9.71h-9.6h-0.11h-9.6
		c-5.37,0-9.71,4.35-9.71,9.71l0,0c0,5.37,4.35,9.71,9.71,9.71H92.32z"/>
	<path class="st0" d="M207.57,37.8h0.11h9.6c5.37,0,9.71-4.35,9.71-9.71l0,0c0-5.37-4.35-9.71-9.71-9.71h-9.6h-0.11h-9.6
		c-5.37,0-9.71,4.35-9.71,9.71l0,0c0,5.37,4.35,9.71,9.71,9.71H207.57z"/>
	<path class="st0" d="M148.32,104.51v126.35H7.65v-90.14c0-19.98,16.19-36.2,36.2-36.2H148.32z"/>
	<line class="st1" x1="151.71" y1="230.86" x2="148.32" y2="230.86"/>
	<path class="st0" d="M289.21,259.27c1.63-3.7,2.69-7.7,3-11.92v-0.03c0.07-0.88,0.14-1.76,0.14-2.64c0-0.88-0.07-1.76-0.14-2.64
		v-7.79H7.65v13.11h0.14c0.31,4.22,1.37,8.23,3,11.93c-1.99,3.77-3.14,8.07-3.14,12.63c0,14.96,12.13,27.09,27.09,27.09
		c11.82,0,21.84-7.58,25.54-18.13h179.43c3.7,10.55,13.73,18.13,25.54,18.13c14.96,0,27.09-12.13,27.09-27.09
		C292.35,267.34,291.21,263.05,289.21,259.27z"/>
	<path class="st0" d="M292.34,140.71c0,0.91-0.07,1.79-0.14,2.68v87.47h-140.5V104.51h104.44
		C276.12,104.51,292.34,120.7,292.34,140.71z"/>
	<g>
		<line class="st1" x1="151.71" y1="230.86" x2="148.32" y2="230.86"/>
		<rect x="292.21" y="230.86" class="st2" width="0.14" height="3.39"/>
	</g>
	<g>
		<line class="st1" x1="151.71" y1="230.86" x2="148.32" y2="230.86"/>
	</g>
</g>
</svg>
