<?xml version="1.0" encoding="utf-8"?>
<!-- Generator: Adobe Illustrator 24.1.1, SVG Export Plug-In . SVG Version: 6.00 Build 0)  -->
<svg version="1.1" id="Capa_1" xmlns="http://www.w3.org/2000/svg" xmlns:xlink="http://www.w3.org/1999/xlink" x="0px" y="0px"
	 viewBox="0 0 300 300" style="enable-background:new 0 0 300 300;" xml:space="preserve">
<style type="text/css">
	.st0{fill:#003770;}
	.st1{fill:#00366F;}
	.st2{fill:#00366E;}
	.st3{fill:none;}
	.st4{fill:#CA9E67;enable-background:new    ;}
	.st5{fill:#8E715A;}
	.st6{fill:#68AA65;}
	.st7{fill:#022342;enable-background:new    ;}
	.st8{opacity:0.8;fill:#FCEA10;enable-background:new    ;}
	.st9{fill:#2B4C6B;enable-background:new    ;}
	.st10{fill:#E24453;enable-background:new    ;}
	.st11{fill:#212121;enable-background:new    ;}
	.st12{fill:#CA9E67;}
	.st13{fill:#828282;}
</style>
<g>
	<rect x="23" y="68.55" class="st8" width="257" height="95.91"/>
	<path class="st9" d="M250.65,37.43h-68.98c0,0-37.82,0-63.38,0c-10,0-24.73,0-24.73,0H49.28C24.81,37.43,5,57.24,5,81.71v136.48
		c0,24.47,19.81,44.35,44.28,44.35c12.25,0,23.31-4.98,31.32-12.96c8.04-8.04,12.96-19.13,12.96-31.35v-14.66
		c2.25,0.87,4.73,1.32,7.24,1.32c11.64,0,21.13-9.49,21.13-21.13h56.12c0,11.64,9.45,21.13,21.1,21.13c2.57,0,5.02-0.45,7.24-1.29
		v14.63c0,24.47,19.84,44.35,44.28,44.35c24.47,0,44.35-19.84,44.35-44.35V81.71C294.97,57.24,275.13,37.43,250.65,37.43z
		 M73.88,144.16H60.5c-5.69,0-10.29-4.6-10.29-10.29v-6.37h-6.37c-5.63,0-10.23-4.6-10.23-10.23V103.9c0-5.69,4.6-10.29,10.23-10.29
		h6.37v-6.37c0-5.63,4.6-10.23,10.29-10.23h13.38c5.63,0,10.23,4.6,10.23,10.23v6.37h6.37c5.69,0,10.29,4.6,10.29,10.29v13.38
		c0,5.63-4.6,10.23-10.29,10.23h-6.37v6.37C84.14,139.56,79.54,144.16,73.88,144.16z M100.8,200.73c-2.57,0-5.05-0.58-7.24-1.61
		c-5.76-2.73-9.74-8.59-9.74-15.37c0-9.36,7.62-16.98,16.98-16.98c9.36,0,16.98,7.62,16.98,16.98
		C117.78,193.08,110.16,200.73,100.8,200.73z M242.29,107.79c-5.85,0-10.58-4.73-10.58-10.58c0-5.85,4.73-10.58,10.58-10.58
		c5.85,0,10.58,4.73,10.58,10.58C252.84,103.07,248.11,107.79,242.29,107.79z M252.84,123.94c0,5.85-4.73,10.58-10.58,10.58
		c-5.85,0-10.58-4.73-10.58-10.58c0-5.85,4.73-10.58,10.58-10.58C248.11,113.39,252.84,118.08,252.84,123.94z M232.58,110.56
		c0,5.85-4.73,10.58-10.58,10.58c-5.85,0-10.58-4.73-10.58-10.58c0-5.85,4.73-10.58,10.58-10.58
		C227.85,99.98,232.58,104.71,232.58,110.56z M262.55,121.11c-5.85,0-10.58-4.73-10.58-10.58c0-5.85,4.73-10.58,10.58-10.58
		s10.58,4.73,10.58,10.58C273.1,116.41,268.37,121.11,262.55,121.11z M206.37,199.06c-2.19,1.06-4.63,1.67-7.24,1.67
		c-9.36,0-16.95-7.62-16.95-16.98s7.59-16.98,16.95-16.98c9.36,0,16.98,7.62,16.98,16.98C216.08,190.47,212.13,196.36,206.37,199.06
		z"/>
</g>
</svg>
