<?xml version="1.0" encoding="utf-8"?>
<!-- Generator: Adobe Illustrator 24.1.1, SVG Export Plug-In . SVG Version: 6.00 Build 0)  -->
<svg version="1.1" id="Capa_1" xmlns="http://www.w3.org/2000/svg" xmlns:xlink="http://www.w3.org/1999/xlink" x="0px" y="0px"
	 viewBox="0 0 300 300" style="enable-background:new 0 0 300 300;" xml:space="preserve">
<style type="text/css">
	.st0{fill:#003770;}
	.st1{fill:#00366F;}
	.st2{fill:#00366E;}
	.st3{fill:none;}
	.st4{fill:#CA9E67;enable-background:new    ;}
	.st5{fill:#8E715A;}
	.st6{fill:#68AA65;}
	.st7{fill:#022342;enable-background:new    ;}
	.st8{opacity:0.8;fill:#FCEA10;enable-background:new    ;}
	.st9{fill:#2B4C6B;enable-background:new    ;}
	.st10{fill:#E24453;enable-background:new    ;}
	.st11{fill:#212121;enable-background:new    ;}
	.st12{fill:#CA9E67;}
	.st13{fill:#828282;}
</style>
<g>
	<path class="st4" d="M149.61,230.98h-0.43v-16.45h0.43c10.01,0,18.13-8.13,18.13-18.13c0-10.01-8.13-18.13-18.13-18.13h-17.94h-0.2
		h-17.94h-0.04h-0.04H95.52h-0.16h-0.04h-17.9h-0.04h-0.16H59.29h-0.04h-0.04H41.27h-0.2H23.13C13.13,178.26,5,186.39,5,196.39
		c0,10.01,8.13,18.13,18.13,18.13h0.43v16.45h-0.43C13.13,230.98,5,239.11,5,249.12c0,10.01,8.13,18.13,18.13,18.13h0.43v1.41
		c0,10.01,8.13,18.13,18.13,18.13s18.13-8.13,18.13-18.13v-1.41h17.39h0.16h0.04h17.9h0.04h0.16h17.39v1.41
		c0,10.01,8.13,18.13,18.13,18.13s18.13-8.13,18.13-18.13v-1.41h0.43c10.01,0,18.13-8.13,18.13-18.13
		C167.74,239.11,159.61,230.98,149.61,230.98z M95.32,230.98h-0.04h-17.9h-0.04h-0.16H59.8v-16.45h17.39h0.16h0.04h17.9h0.04h0.16
		h17.39v16.45H95.48H95.32z"/>
	<g>
		<g>
			<path class="st5" d="M195.38,121.94v32.56v0.39v32.56c0,0.04,0,0.08,0,0.08c0,0.04,0,0.08,0,0.08v32.56v0.39v32.56
				c0,18.21,14.73,32.95,32.95,32.95c18.21,0,32.95-14.73,32.95-32.95v-32.56v-0.39V187.6c0-0.04,0-0.08,0-0.08
				c0-0.04,0-0.08,0-0.08v-32.56v-0.39v-32.56c0-18.21-14.73-32.95-32.95-32.95S195.38,103.73,195.38,121.94z"/>
		</g>
	</g>
	<path class="st6" d="M262.05,114.43C262.05,114.43,262.05,114.39,262.05,114.43c0-0.04,0-0.08,0-0.08
		C280.3,113.93,295,99.03,295,80.67s-14.7-33.26-32.95-33.69v-0.04c0-18.6-15.09-33.73-33.73-33.73c-18.6,0-33.73,15.09-33.73,33.73
		v0.04c-18.25,0.43-32.95,15.32-32.95,33.69s14.7,33.26,32.95,33.69v0.04v0.04c-18.25,0.43-32.95,15.32-32.95,33.69
		c0,18.6,15.09,33.73,33.73,33.73c16.18,0,29.66-11.37,32.95-26.58c3.28,15.2,16.77,26.58,32.95,26.58
		c18.6,0,33.73-15.09,33.73-33.73C294.96,129.75,280.3,114.86,262.05,114.43z"/>
</g>
</svg>
