<?xml version="1.0" encoding="utf-8"?>
<!-- Generator: Adobe Illustrator 24.1.1, SVG Export Plug-In . SVG Version: 6.00 Build 0)  -->
<svg version="1.1" id="Capa_1" xmlns="http://www.w3.org/2000/svg" xmlns:xlink="http://www.w3.org/1999/xlink" x="0px" y="0px"
	 viewBox="0 0 300 300" style="enable-background:new 0 0 300 300;" xml:space="preserve">
<style type="text/css">
	.st0{fill:#003770;}
	.st1{fill:#00366F;}
	.st2{fill:#00366E;}
	.st3{fill:none;}
	.st4{fill:#CA9E67;enable-background:new    ;}
	.st5{fill:#8E715A;}
	.st6{fill:#68AA65;}
	.st7{fill:#022342;enable-background:new    ;}
	.st8{opacity:0.8;fill:#FCEA10;enable-background:new    ;}
	.st9{fill:#2B4C6B;enable-background:new    ;}
	.st10{fill:#E24453;enable-background:new    ;}
	.st11{fill:#212121;enable-background:new    ;}
	.st12{fill:#CA9E67;}
	.st13{fill:#828282;}
</style>
<g>
	<path class="st13" d="M295.43,49.29v201.38c0,24.48-19.84,44.33-44.33,44.33c-2.07,0-4.1-0.12-6.09-0.41
		c3.85-6.55,6.09-14.21,6.09-22.41V184.1c0-24.48-19.8-44.29-44.29-44.29V49.29C206.82,24.84,226.66,5,251.11,5
		C275.59,5,295.43,24.84,295.43,49.29z"/>
	<path class="st13" d="M160.54,5c-11.43,0-20.71,9.28-20.71,20.71V55.5h-26.22V25.71C113.61,14.28,104.37,5,92.89,5
		c-11.43,0-20.71,9.28-20.71,20.71V55.5H45.99V25.71C45.99,14.28,36.71,5,25.28,5S4.57,14.28,4.57,25.71v72.75
		c0,24.69,19.6,44.7,44.04,45.57c0,25.77,0,62.35,0,62.35v44.33c0,24.44,19.84,44.29,44.29,44.29c24.48,0,44.33-19.84,44.33-44.29
		V144.08c24.36-0.12,44.04-19.89,44.04-44.29V25.71C181.26,14.28,171.98,5,160.54,5z M92.85,285.39
		c-18.27,0-33.14-14.87-33.14-33.14c0-18.31,14.87-33.14,33.14-33.14c18.31,0,33.14,14.83,33.14,33.14
		C125.99,270.52,111.2,285.39,92.85,285.39z"/>
</g>
</svg>
