<?xml version="1.0" encoding="utf-8"?>
<!-- Generator: Adobe Illustrator 24.1.1, SVG Export Plug-In . SVG Version: 6.00 Build 0)  -->
<svg version="1.1" id="Capa_1" xmlns="http://www.w3.org/2000/svg" xmlns:xlink="http://www.w3.org/1999/xlink" x="0px" y="0px"
	 viewBox="0 0 300 300" style="enable-background:new 0 0 300 300;" xml:space="preserve">
<style type="text/css">
	.st0{fill:#003770;}
	.st1{fill:#00366F;}
	.st2{fill:#00366E;}
	.st3{fill:none;}
	.st4{fill:#CA9E67;enable-background:new    ;}
	.st5{fill:#8E715A;}
	.st6{fill:#68AA65;}
	.st7{fill:#022342;enable-background:new    ;}
	.st8{opacity:0.8;fill:#FCEA10;enable-background:new    ;}
	.st9{fill:#2B4C6B;enable-background:new    ;}
	.st10{fill:#E24453;enable-background:new    ;}
	.st11{fill:#212121;enable-background:new    ;}
	.st12{fill:#CA9E67;}
	.st13{fill:#828282;}
</style>
<path class="st10" d="M250.71,76.88h-27.55V49.33C223.16,24.84,203.32,5,178.83,5h-57.67C96.68,5,76.84,24.84,76.84,49.33v27.55
	H49.29C24.84,76.88,5,96.72,5,121.17v57.71c0,24.44,19.84,44.29,44.29,44.29h27.55v27.55c0,24.48,19.84,44.29,44.33,44.29h57.67
	c24.48,0,44.33-19.8,44.33-44.29v-27.55h27.55c24.44,0,44.29-19.84,44.29-44.29v-57.71C295,96.72,275.16,76.88,250.71,76.88z
	 M150,183.14c-18.31,0-33.14-14.83-33.14-33.14c0-18.27,14.83-33.14,33.14-33.14s33.14,14.87,33.14,33.14
	C183.14,168.31,168.31,183.14,150,183.14z"/>
</svg>
