<?xml version="1.0" encoding="utf-8"?>
<!-- Generator: Adobe Illustrator 24.1.1, SVG Export Plug-In . SVG Version: 6.00 Build 0)  -->
<svg version="1.1" id="Capa_1" xmlns="http://www.w3.org/2000/svg" xmlns:xlink="http://www.w3.org/1999/xlink" x="0px" y="0px"
	 viewBox="0 0 300 300" style="enable-background:new 0 0 300 300;" xml:space="preserve">
<style type="text/css">
	.st0{fill:#8E715A;}
	.st1{fill:#68AA65;}
	.st2{fill:#659BA8;}
	.st3{fill:#E24453;enable-background:new    ;}
	.st4{fill:#212121;enable-background:new    ;}
	.st5{fill:#2E4A63;}
</style>
<g>
	<rect x="94.79" y="31.02" class="st0" width="34.06" height="62.55"/>
	<path class="st1" d="M171.98,79.33h-29.55c-1.25,0-2.26-1.01-2.26-2.26V19.04c0-1.25,1.01-2.26,2.26-2.26h29.55
		c1.25,0,2.26,1.01,2.26,2.26v58.03C174.24,78.32,173.23,79.33,171.98,79.33z"/>
	<path class="st2" d="M212.08,99.68h-18.96c-1.42,0-2.57-1.15-2.57-2.57v-57.4c0-1.42,1.15-2.57,2.57-2.57h18.96
		c1.42,0,2.57,1.15,2.57,2.57v57.4C214.66,98.53,213.51,99.68,212.08,99.68z"/>
	<rect x="230.97" y="31.02" class="st3" width="34.06" height="62.55"/>
	<circle class="st4" cx="105.43" cy="259.8" r="23.42"/>
	<circle class="st4" cx="250.95" cy="259.8" r="23.42"/>
	<path class="st5" d="M298.27,122.46c0-27.68-22.43-50.06-50.06-50.06H213.6h-14.89h-0.56H164.1h-0.56h-14.89h-34.61
		c-27.68,0-50.06,22.43-50.06,50.06c0,10.86,3.49,20.87,9.35,29.06c0.36,27.36,22.62,49.39,50.03,49.39h18.19h31.31h0.56h17.63h0.56
		h31.31h18.19c27.68,0,50.06-22.43,50.06-50.06c0-0.87-0.09-1.71-0.13-2.57C295.6,140.73,298.27,131.92,298.27,122.46z"/>
	<g>
		<path class="st5" d="M292.21,229.29c-49.85,0-99.69,0-149.54,0c-12.42,0-24.83,0-37.25,0c-8.72,0-18.01-0.94-26.7,0.05
			c-3.12,0.35,0.95-0.23,0.7,0.58c0.08-0.27-1.53-3.53-1.65-3.98c-0.49-1.76-0.92-3.62-1.17-5.43c-0.83-5.89-0.46-14.46,7.09-15.33
			c4.63-0.54,7.87-4.05,6.77-8.89C77.31,138.18,64.14,80.06,50.98,21.94c-0.68-2.99-3.79-5.16-6.77-5.16c-12.14,0-24.28,0-36.42,0
			c-9.04,0-9.05,14.05,0,14.05c12.14,0,24.28,0,36.42,0c-2.26-1.72-4.52-3.44-6.77-5.16C50.6,83.79,63.76,141.91,76.92,200.03
			c2.26-2.96,4.52-5.93,6.77-8.89c-16.69,1.93-23.02,15.98-20.88,31.34c0.72,5.19,1.87,10.63,4.85,15.02
			c3.73,5.51,8.45,5.88,14.44,5.84c43.93-0.3,87.87,0,131.79,0c26.11,0,52.21,0,78.32,0C301.25,243.34,301.27,229.29,292.21,229.29
			L292.21,229.29z"/>
	</g>
</g>
</svg>
