<?xml version="1.0" encoding="utf-8"?>
<!-- Generator: Adobe Illustrator 24.1.1, SVG Export Plug-In . SVG Version: 6.00 Build 0)  -->
<svg version="1.1" id="Capa_1" xmlns="http://www.w3.org/2000/svg" xmlns:xlink="http://www.w3.org/1999/xlink" x="0px" y="0px"
	 viewBox="0 0 300 300" style="enable-background:new 0 0 300 300;" xml:space="preserve">
<style type="text/css">
	.st0{fill:#003770;}
	.st1{fill:#00366F;}
	.st2{fill:#00366E;}
	.st3{fill:none;}
	.st4{fill:#CA9E67;enable-background:new    ;}
	.st5{fill:#8E715A;}
	.st6{fill:#68AA65;}
	.st7{fill:#022342;enable-background:new    ;}
	.st8{opacity:0.8;fill:#FCEA10;enable-background:new    ;}
	.st9{fill:#2B4C6B;enable-background:new    ;}
	.st10{fill:#E24453;enable-background:new    ;}
	.st11{fill:#212121;enable-background:new    ;}
	.st12{fill:#CA9E67;}
	.st13{fill:#828282;}
</style>
<g>
	<path class="st0" d="M246.53,189.26h-47.93h-0.54h-47.93c-0.05,0-0.09,0.01-0.14,0.01s-0.09-0.01-0.14-0.01h-47.93h-0.54H53.47
		C26.67,189.26,5,210.03,5,235.61c0,25.62,21.72,46.35,48.47,46.35h47.93h0.54h47.93c0.05,0,0.09-0.01,0.14-0.01
		s0.09,0.01,0.14,0.01h47.93h0.54h47.93c26.8,0,48.47-20.77,48.47-46.35C295,209.99,273.28,189.26,246.53,189.26z"/>
	<g>
		<path class="st0" d="M263.6,28.75c-7.59-6.63-17.52-10.71-28.36-10.71H64.72c-10.84,0-20.81,4.08-28.36,10.71v0.04
			c-8.86,7.85-14.39,19.27-14.39,32.04v85.63c-0.04,12.77,5.53,24.2,14.39,32.04v0.04c7.54,6.63,17.52,10.71,28.36,10.71h47.61
			c0.43,0,75.31,0,75.31,0h47.61c10.84,0,20.77-4.08,28.36-10.71c8.85-7.85,14.44-19.29,14.44-32.08V60.84
			C278.03,48.04,272.44,36.6,263.6,28.75z M263.6,131.98c0,20.99-17,37.98-37.98,37.98h-75.53c-0.04,0-0.09-0.04-0.13-0.04
			s-0.09,0.04-0.13,0.04H74.3c-20.69,0-37.43-16.54-37.89-37.12v-0.86V75.32v-0.83c0.49-20.6,17.23-37.11,37.94-37.11h151.27
			c20.98,0,37.98,17,37.98,37.94V131.98z"/>
		<path class="st0" d="M149.83,103.67h0.26c-0.04,0-0.09-0.04-0.13-0.04S149.87,103.67,149.83,103.67z"/>
	</g>
</g>
</svg>
