<?xml version="1.0" encoding="utf-8"?>
<!-- Generator: Adobe Illustrator 24.1.1, SVG Export Plug-In . SVG Version: 6.00 Build 0)  -->
<svg version="1.1" id="Capa_1" xmlns="http://www.w3.org/2000/svg" xmlns:xlink="http://www.w3.org/1999/xlink" x="0px" y="0px"
	 viewBox="0 0 300 300" style="enable-background:new 0 0 300 300;" xml:space="preserve">
<style type="text/css">
	.st0{fill:#003770;}
	.st1{fill:#00366F;}
	.st2{fill:#00366E;}
	.st3{fill:none;}
	.st4{fill:#CA9E67;enable-background:new    ;}
	.st5{fill:#8E715A;}
	.st6{fill:#68AA65;}
	.st7{fill:#022342;enable-background:new    ;}
	.st8{opacity:0.8;fill:#FCEA10;enable-background:new    ;}
	.st9{fill:#2B4C6B;enable-background:new    ;}
	.st10{fill:#E24453;enable-background:new    ;}
	.st11{fill:#212121;enable-background:new    ;}
	.st12{fill:#CA9E67;}
	.st13{fill:#828282;}
</style>
<path class="st0" d="M149.84,294.97c-38.74,0-77.48,0.01-116.22,0c-7.48,0-7.5-0.02-7.5-7.23c-0.01-59.41-0.06-118.82,0.02-178.24
	c0.04-36.17,27.27-63.15,63.53-63.18c4.75,0,9.51-0.21,14.24,0.06c3.78,0.21,4.88-1.35,5.36-4.94c2.07-15.7,10.45-27.01,25.07-33.07
	c14.46-5.99,28.28-3.92,40.76,5.46c9.27,6.96,14.55,16.51,15.72,28.01c0.38,3.72,1.81,4.5,5.13,4.53c9.93,0.1,19.88-0.75,29.73,1.54
	c27.57,6.4,47.88,30.53,48.02,58.74c0.3,61.09,0.06,122.19,0.2,183.29c0.01,4.83-2.41,5.05-6,5.05
	C228.55,294.95,189.2,294.97,149.84,294.97z M149.72,46.32c9.78,0,19.56,0,29.34,0c7.19,0,7.66-0.59,6.06-7.54
	c-3.84-16.75-19.04-28.57-36.1-28.06c-17.21,0.51-31.52,12.91-34.54,29.94c-0.93,5.22-0.65,5.63,4.51,5.65
	C129.24,46.35,139.48,46.32,149.72,46.32z"/>
</svg>
