<?xml version="1.0" encoding="utf-8"?>
<!-- Generator: Adobe Illustrator 25.4.1, SVG Export Plug-In . SVG Version: 6.00 Build 0)  -->
<svg version="1.1" id="Capa_1" xmlns="http://www.w3.org/2000/svg" xmlns:xlink="http://www.w3.org/1999/xlink" x="0px" y="0px"
	 viewBox="0 0 1400 1400" style="enable-background:new 0 0 1400 1400;" xml:space="preserve">
<style type="text/css">
	.st0{fill:#FFFFFF;}
	.st1{fill:#b0bec5;}
</style>
<g>
	<path class="st1" d="M1198.2,340.72c0-41.98-25.89-67.82-67.93-67.82c-143.07-0.01-286.14-0.01-429.21-0.01c-143.81,0-287.63,0-431.44,0.01
		c-42.04,0-67.82,25.8-67.82,67.91c-0.01,239.48-0.01,478.96,0,718.45c0,42.08,25.79,67.84,67.9,67.84
		c225.47,0.01,450.93,0.01,676.4,0c-8.13-21.39-12.59-44.58-12.59-68.82c0-83.01,52.27-153.82,125.69-181.3
		c-42.11-45.34-83.57-89.99-125.03-134.63c-9.33-10.04-18.54-20.19-28.06-30.05c-15.73-16.28-33.6-18.07-51.6-4.25
		c-14.97,11.51-29.01,24.2-43.61,36.2c-22.12,18.19-40.01,17.84-59.46-2.79c-39.91-42.31-79.12-85.28-118.75-127.84
		c-20.65-22.18-44.59-27.19-66.38-13.23c-7,4.49-12.97,11.05-18.36,17.53C460.58,723.1,373.38,828.42,286.13,933.7
		c-3.7,4.47-7.46,8.89-13.16,15.68v-13.37c0-185.73-0.01-371.46,0-557.2c0.01-23.75,10.86-34.72,34.51-34.72
		c261.69-0.02,523.37-0.02,785.06,0c23.2,0,34.03,10.79,34.09,33.99c0.1,34.47,0.01,68.95,0.03,103.43
		c0.1,127.75,0.21,255.5,0.31,383.25h0.06c25.13,0,49.15,4.79,71.18,13.51C1198.21,699.09,1198.21,519.91,1198.2,340.72z"/>
	<path class="st1" d="M1055.86,522.27c-0.08,58.89-48.02,106.62-106.99,106.54c-58.88-0.08-106.61-48.03-106.52-107.01
		c0.08-58.89,48.02-106.62,106.99-106.54C1008.21,415.35,1055.94,463.29,1055.86,522.27z"/>
</g>
<circle class="st1" cx="1127.03" cy="1058.28" r="140.76"/>
<g>
	<path class="st0" d="M1072.5,1115.09c-0.74-0.74-1.49-1.49-2.23-2.23c-0.43-0.6-0.84-1.2-1.28-1.78c-3.4-4.56-5.19-9.69-5.25-15.37
		c-0.08-7.45,2.56-13.84,7.83-19.12c5.89-5.91,11.8-11.81,17.71-17.71c0.17-0.17,0.35-0.35,0.58-0.58
		c-0.24-0.24-0.43-0.43-0.62-0.62c-5.89-5.89-11.78-11.78-17.66-17.66c-1.24-1.24-2.37-2.56-3.35-4.01
		c-6.39-9.39-5.93-21.96,1.11-30.93c0.32-0.41,0.62-0.83,0.93-1.25c0.74-0.74,1.49-1.49,2.23-2.23c0.16-0.1,0.32-0.19,0.47-0.31
		c1.79-1.52,3.74-2.78,5.86-3.78c10.02-4.7,21.9-2.64,29.73,5.18c5.95,5.94,11.9,11.89,17.84,17.84c0.19,0.19,0.38,0.38,0.62,0.62
		c0.24-0.24,0.43-0.43,0.62-0.62c5.95-5.95,11.89-11.9,17.84-17.84c2.86-2.85,6.18-5,10.02-6.24c8.57-2.77,16.59-1.58,23.98,3.6
		c0.46,0.32,0.9,0.68,1.34,1.01c1.13,1.13,2.26,2.26,3.39,3.39c0.36,0.46,0.72,0.92,1.06,1.39c3.52,4.87,5.21,10.33,5,16.32
		c-0.25,6.95-2.88,12.89-7.78,17.81c-5.89,5.91-11.8,11.81-17.7,17.71c-0.19,0.19-0.38,0.38-0.61,0.61c0.23,0.23,0.4,0.4,0.58,0.58
		c5.96,5.96,11.93,11.92,17.88,17.89c2.84,2.84,4.98,6.15,6.21,9.97c2.84,8.77,1.56,16.91-3.85,24.4c-0.27,0.37-0.53,0.75-0.8,1.12
		c-1.07,1.07-2.14,2.14-3.21,3.21c-0.39,0.28-0.78,0.56-1.17,0.84c-4.93,3.68-10.48,5.47-16.62,5.27
		c-6.95-0.23-12.91-2.84-17.83-7.74c-5.93-5.9-11.84-11.83-17.76-17.75c-0.19-0.19-0.38-0.38-0.61-0.61
		c-0.25,0.25-0.44,0.44-0.63,0.63c-5.89,5.89-11.78,11.78-17.66,17.66c-1.09,1.09-2.24,2.1-3.5,2.99
		c-4.67,3.27-9.86,4.92-15.57,4.84c-6.1-0.09-11.53-2.07-16.27-5.91C1073.12,1115.44,1072.8,1115.28,1072.5,1115.09z"/>
</g>
</svg>
